<svg _ngcontent-geh-c35="" xmlns="http://www.w3.org/2000/svg" width="33" height="34" fill="none" viewBox="0 4 12 4"><path _ngcontent-geh-c35="" d="M11.9271 1.24035C11.8728 0.932561 11.7437 0.649215 11.5573 0.442538C11.2615 0.114745 10.9009 -0.0558179 10.532 0.0164076C9.56409 0.206416 8.60139 0.42976 7.63737 0.643659C6.6808 0.855891 5.72509 1.07368 4.76939 1.28813C4.62061 1.32147 4.47096 1.35036 4.32174 1.38314C4.13445 1.42481 4.13139 1.55259 4.2386 1.74315C4.59042 2.36818 5.07352 2.55652 5.58682 2.44596C7.03875 2.13317 8.48192 1.77093 9.93035 1.43981C10.1903 1.38036 10.4555 1.24369 10.7298 1.46536C10.9644 1.65482 11.0081 1.91927 11.0068 2.27429C11.002 3.43545 10.9981 4.59717 10.9915 5.75834C10.981 7.58009 11.0055 9.40129 10.9963 11.223C10.9941 11.6736 11.223 11.9714 11.5114 11.9981C11.7984 12.0247 11.9901 11.7731 11.9905 11.353C11.9962 8.1879 12.0037 5.02331 11.998 1.85705C11.998 1.65315 11.9634 1.44647 11.9266 1.23924L11.9271 1.24035Z" fill="#0A1E37"></path><path _ngcontent-geh-c35="" d="M6.0253 3.27266C6.27122 3.85991 6.84097 4.17881 7.43784 4.04603C8.43293 3.82435 9.42582 3.59101 10.4205 3.36655C10.5684 3.33322 10.6415 3.24322 10.6305 3.02821C10.6191 2.80431 10.6323 2.58096 10.6296 2.35706C10.6257 2.03094 10.5583 1.9326 10.3224 1.97816C9.84241 2.07094 9.36675 2.18872 8.88934 2.29817C8.03603 2.49318 7.18317 2.6893 6.32986 2.88542C6.25941 2.90153 6.18983 2.92265 6.12069 2.94487C5.98023 2.98987 5.93953 3.09488 6.0253 3.27266Z" fill="#0A1E37"></path><path _ngcontent-geh-c35="" d="M7.69822 4.79052C7.94415 5.37777 8.31742 5.72445 8.91429 5.59167C9.90938 5.36999 9.40965 5.49333 10.4043 5.26887C10.5522 5.23554 10.6253 5.14553 10.6143 4.93053C10.603 4.70663 10.6161 4.48328 10.6135 4.25938C10.6095 3.93326 10.5421 3.83492 10.3063 3.88048C9.82623 3.97326 9.35057 4.09104 8.87316 4.20049C8.01985 4.3955 8.85609 4.20716 8.00323 4.40383C7.93277 4.41995 7.8632 4.44106 7.79406 4.46328C7.65359 4.50828 7.61333 4.61329 7.6991 4.79107L7.69822 4.79052Z" fill="#0A1E37"></path><path _ngcontent-geh-c35="" d="M4.3274 2.74428C4.26089 2.62539 4.22719 2.55761 4.18737 2.49594C4.08498 2.33704 3.88368 2.02036 3.88368 2.02036C3.88368 2.02036 3.54061 1.54756 3.2378 1.61979C2.21427 1.8648 1.18462 2.07592 0.157154 2.29871C-0.0292604 2.33926 -0.0362618 2.46816 0.0652594 2.65872C0.405268 3.29764 0.887057 3.48321 1.40298 3.39709C2.15345 3.27264 2.89385 3.0793 3.6382 2.91318C3.85437 2.86484 4.06922 2.80762 4.3274 2.74428Z" fill="#0A1E37"></path><path _ngcontent-geh-c35="" d="M6.24327 4.22213C6.17676 4.10323 6.14306 4.03545 6.10324 3.97378C6.00085 3.81489 5.79955 3.4982 5.79955 3.4982C5.79955 3.4982 5.45648 3.0254 5.15367 3.09763C4.13014 3.34264 3.10049 3.55376 2.07302 3.77655C1.88661 3.81711 1.87961 3.946 1.98113 4.13657C2.32114 4.77549 2.80293 4.96105 3.31885 4.87493C4.06932 4.75048 4.80972 4.55714 5.55406 4.39102C5.77024 4.34269 5.98509 4.28546 6.24327 4.22213Z" fill="#0A1E37"></path><path _ngcontent-geh-c35="" d="M7.8798 5.7694C7.81328 5.65051 7.77959 5.58273 7.73977 5.52106C7.63737 5.36216 7.43608 5.04548 7.43608 5.04548C7.43608 5.04548 7.09301 4.57268 6.79019 4.64491C5.76666 4.88992 4.73701 5.10104 3.70955 5.32383C3.52313 5.36439 3.51613 5.49328 3.61765 5.68385C3.95766 6.32276 4.43945 6.50833 4.95537 6.42221C5.70584 6.29776 6.44625 6.10442 7.19059 5.9383C7.40676 5.88997 7.62162 5.83274 7.8798 5.7694Z" fill="#0A1E37"></path><path _ngcontent-geh-c35="" d="M5.53252 7.24953C5.77845 7.83678 6.15172 8.18346 6.74859 8.05068C7.74368 7.829 9.4004 7.50343 10.395 7.27842C10.5429 7.24509 10.616 7.15508 10.6051 6.94007C10.5937 6.71617 10.6068 6.49283 10.6042 6.26893C10.6003 5.9428 10.5329 5.84447 10.297 5.89002C9.81698 5.9828 9.34132 6.10059 8.86391 6.21004C8.01061 6.40505 6.69039 6.66561 5.83709 6.86229C5.76664 6.8784 5.69706 6.89951 5.62792 6.92174C5.48745 6.96674 5.44676 7.07174 5.53252 7.24953Z" fill="#0A1E37"></path></svg>